<svg width="56" height="56" viewBox="0 0 56 56" fill="none" xmlns="http://www.w3.org/2000/svg">
<circle cx="28" cy="28" r="28" fill="#F4F7FE"/>
<g clip-path="url(#clip0_175_4363)">
<path d="M31.2501 16.0833H19.3334C18.1417 16.0833 17.1667 17.0583 17.1667 18.2499V32.3333C17.1667 32.9291 17.6542 33.4166 18.2501 33.4166C18.8459 33.4166 19.3334 32.9291 19.3334 32.3333V19.3333C19.3334 18.7374 19.8209 18.2499 20.4167 18.2499H31.2501C31.8459 18.2499 32.3334 17.7624 32.3334 17.1666C32.3334 16.5708 31.8459 16.0833 31.2501 16.0833ZM31.8892 21.0558L37.1217 26.2883C37.5226 26.6891 37.7501 27.2416 37.7501 27.8158V37.7499C37.7501 38.9416 36.7751 39.9166 35.5834 39.9166H23.6559C22.4642 39.9166 21.5001 38.9416 21.5001 37.7499L21.5109 22.5833C21.5109 21.3916 22.4751 20.4166 23.6667 20.4166H30.3509C30.9251 20.4166 31.4776 20.6441 31.8892 21.0558ZM31.2501 27.9999H36.1251L30.1667 22.0416V26.9166C30.1667 27.5124 30.6542 27.9999 31.2501 27.9999Z" fill="#4318FF"/>
</g>
<defs>
<clipPath id="clip0_175_4363">
<rect width="26" height="26" fill="white" transform="translate(15 15)"/>
</clipPath>
</defs>
</svg>
