<svg width="56" height="56" viewBox="0 0 56 56" fill="none" xmlns="http://www.w3.org/2000/svg">
<circle cx="28" cy="28" r="28" fill="url(#paint0_linear_175_4354)"/>
<g clip-path="url(#clip0_175_4354)">
<path d="M39.6666 20.0433L26.3549 33.3666L21.4083 28.4199L23.0533 26.7749L26.3549 30.0766L38.0216 18.4099L39.6666 20.0433ZM27.9999 37.3333C22.8549 37.3333 18.6666 33.1449 18.6666 27.9999C18.6666 22.8549 22.8549 18.6666 27.9999 18.6666C29.8316 18.6666 31.5466 19.2033 32.9933 20.1249L34.6849 18.4333C32.7833 17.1149 30.4849 16.3333 27.9999 16.3333C21.5599 16.3333 16.3333 21.5599 16.3333 27.9999C16.3333 34.4399 21.5599 39.6666 27.9999 39.6666C30.0183 39.6666 31.9199 39.1533 33.5766 38.2433L31.8266 36.4933C30.6599 37.0299 29.3649 37.3333 27.9999 37.3333ZM36.1666 31.4999H32.6666V33.8333H36.1666V37.3333H38.4999V33.8333H41.9999V31.4999H38.4999V27.9999H36.1666V31.4999Z" fill="white"/>
</g>
<defs>
<linearGradient id="paint0_linear_175_4354" x1="0" y1="28" x2="56" y2="28" gradientUnits="userSpaceOnUse">
<stop stop-color="#4481EB"/>
<stop offset="1" stop-color="#04BEFE"/>
</linearGradient>
<clipPath id="clip0_175_4354">
<rect width="28" height="28" fill="white" transform="translate(14 14)"/>
</clipPath>
</defs>
</svg>
