<svg width="28" height="28" viewBox="0 0 28 28" fill="none" xmlns="http://www.w3.org/2000/svg">
<g clip-path="url(#clip0_179_5274)">
<path fill-rule="evenodd" clip-rule="evenodd" d="M21.6252 17.125H19.0002C18.6249 17.125 18.3751 16.8748 18.3751 16.4999C18.3751 16.125 18.6253 15.8748 19.0002 15.8748H21.6252C22.2499 15.8748 22.875 15.7501 23.5001 15.6246C23.875 15.4999 24.1252 15.3748 24.3749 15.2497C24.6251 15.125 24.7502 14.7497 24.7502 14.4999C24.7502 14.2497 24.6251 13.9995 24.5 13.7497C23.875 13 22.7499 12.5 21.25 12C21.1249 12 21.1249 11.8749 20.9998 11.8749C20.6249 11.6247 20.3751 11.2498 20.25 10.8749C20.25 10.3745 20.5002 9.99962 20.8751 9.74983C21.7499 8.49966 22.2499 7.37499 22.1252 6.37461C22.0001 5.74993 21.7499 5.24994 21.25 4.87465C20.3751 4.24956 19.1253 4.24956 18.3747 4.87465C17.8752 5.24994 17.625 5.74993 17.4999 6.37461C17.3752 7.37458 17.8752 8.49966 18.75 9.74983C19.0002 10 18.8751 10.3749 18.6249 10.6247C18.3747 10.8749 17.9999 10.7498 17.7501 10.5C16.4999 8.99965 15.9999 7.49968 16.2501 6.12482C16.3752 5.24994 16.8752 4.37466 17.625 3.87467C18.8751 2.8747 20.7504 2.8747 22.0001 3.87467C22.7499 4.49976 23.2499 5.24994 23.375 6.12482C23.5001 7.49968 23.0001 9.00006 21.875 10.5C21.7499 10.6247 21.7499 10.7498 21.6248 10.7498C21.6248 10.7498 21.7499 10.7498 21.7499 10.8749C23.375 11.3749 24.6251 12.1247 25.3749 12.9995C25.7502 13.3748 26 13.9999 26 14.625C26 14.9646 25.921 15.2995 25.7691 15.6032C25.6173 15.9069 25.3968 16.1711 25.1251 16.3748C24.7502 16.625 24.3749 16.8752 23.875 16.9999C23.1252 16.9999 22.375 17.125 21.6252 17.125ZM7.99977 17.125H5.37475C4.49988 17.125 3.75011 16.9999 3.12503 16.7501C2.62464 16.625 2.24975 16.3748 1.87487 16.125C1.37489 15.7501 1 14.9999 1 14.3748C1 13.7497 1.2502 13.2497 1.62508 12.7498C2.49995 11.8749 3.7497 11.2498 5.37475 10.7498C5.37475 10.7498 5.49985 10.7498 5.49985 10.6247C5.49985 10.6247 5.37475 10.5 5.37475 10.3745C4.125 8.87537 3.50033 7.2503 3.75052 6.00013C3.87521 5.12526 4.3752 4.24997 5.12538 3.74998C6.37554 2.75001 8.25038 2.75001 9.50054 3.74998C10.2503 4.37507 10.7503 5.12526 10.8754 6.00013C11.0005 7.37499 10.5005 8.87537 9.37544 10.3753C9.12525 10.6255 8.75036 10.6255 8.50057 10.5004C8.25038 10.2502 8.12528 9.87534 8.37548 9.62514C9.37544 8.37538 9.75033 7.12521 9.62523 6.25033C9.62523 5.62524 9.25034 5.12526 8.75036 4.74996C7.87549 4.12528 6.75043 4.12528 5.87515 4.74996C5.37516 5.12526 5.00028 5.62524 5.00028 6.12523C4.87518 7.12521 5.37516 8.24987 6.25044 9.50004C6.50064 9.87534 6.87552 10.2502 6.75043 10.6251C6.75043 11.1255 6.37554 11.3753 6.00025 11.6251C6.00025 11.6251 5.87556 11.7502 5.75005 11.7502C4.3752 12.3753 3.37523 12.8753 2.62546 13.6255C2.50036 13.8757 2.37526 14.1254 2.37526 14.3752C2.37526 14.7501 2.50036 15.0003 2.75015 15.1254C3.00034 15.2501 3.25054 15.3756 3.62543 15.5003C4.12541 15.7505 4.75049 15.8752 5.37516 15.8752H8.00018C8.37548 15.8752 8.62526 16.1254 8.62526 16.5003C8.62526 16.8752 8.37506 17.1254 8.00018 17.1254L7.99977 17.125Z" fill="#A3AED0"/>
<path fill-rule="evenodd" clip-rule="evenodd" d="M16.125 27.9997H11.0001C9.87502 27.9997 8.87505 27.8746 7.99977 27.4998C7.3751 27.2496 6.87512 26.9998 6.49982 26.6249C5.75005 26.25 5.37476 25.3747 5.37476 24.4998C5.37476 23.7496 5.62495 23.1246 6.12494 22.4999C7.1249 21.3748 8.74995 20.4995 11.0001 19.7497L11.375 19.3749L11.0001 18.9996C9.37503 16.8749 8.62526 14.9997 8.87505 13.2495C9.12525 12.1244 9.62482 11.1249 10.6248 10.3743C12.2498 9.2496 14.7502 9.2496 16.2501 10.3743C17.2501 11.1249 17.8752 12.1244 17.9999 13.2495C18.2501 14.9997 17.4999 16.9996 15.9999 19C15.625 19.3749 15.625 19.4995 15.625 19.4995C15.625 19.4995 15.8752 19.6246 15.9999 19.7497C18.2501 20.4995 19.8751 21.3748 20.8751 22.4999C21.3751 22.9999 21.6252 23.7496 21.6252 24.4998C21.6252 25.3747 21.25 26.25 20.6249 26.75C20.25 27.1249 19.75 27.3747 19.1249 27.6249C18.125 27.8751 17.125 27.9997 16.125 27.9997ZM13.5 10.6245C12.7498 10.6245 12.0001 10.8747 11.375 11.2495C10.6248 11.7499 10.2499 12.4997 10.1248 13.3746C10.0001 14.7495 10.6252 16.3745 11.875 18.1247C12.2498 18.4996 12.6251 18.8749 12.5 19.4995C12.5 19.9999 11.9996 20.3748 11.6252 20.7497C11.6252 20.7497 11.5001 20.8748 11.375 20.8748C9.25035 21.4999 7.87508 22.3748 6.87512 23.3748C6.75002 23.625 6.62492 24.1249 6.62492 24.4998C6.62492 24.9998 6.87512 25.4998 7.25 25.7496C7.5002 25.9998 7.99977 26.25 8.50017 26.3747C9.24994 26.6249 10.1248 26.75 11.0001 26.75H16.125C16.9999 26.75 17.8752 26.6249 18.6249 26.3747C19.1253 26.25 19.5002 25.9998 19.8751 25.7496C20.25 25.4998 20.5002 24.9998 20.5002 24.4998C20.5002 24.1249 20.3751 23.625 19.9998 23.3748C19.1249 22.3748 17.625 21.6246 15.5003 20.8748C15.3748 20.8748 15.3748 20.7497 15.2501 20.7497C14.8749 20.3748 14.3749 19.9995 14.3749 19.4995C14.3749 18.9996 14.7502 18.4996 15.1251 18.1247C16.3752 16.4996 16.9999 14.7495 16.8752 13.3746C16.7501 12.4997 16.3748 11.8746 15.625 11.25C15 10.8747 14.2502 10.6245 13.5 10.6245Z" fill="#A3AED0"/>
</g>
<defs>
<clipPath id="clip0_179_5274">
<rect width="28" height="28" fill="white"/>
</clipPath>
</defs>
</svg>
